<mxfile host="app.diagrams.net" modified="2022-04-07T07:21:53.136Z" agent="5.0 (Windows NT 10.0; Win64; x64) AppleWebKit/537.36 (KHTML, like Gecko) Chrome/99.0.4844.84 Safari/537.36" etag="mnhIs282qo_fwYmYG7Wy" version="17.1.2" type="github">
  <diagram id="kdgvufC04MnVnlxBzsQj" name="Page-1">
    <mxGraphModel dx="1052" dy="545" grid="1" gridSize="10" guides="1" tooltips="1" connect="1" arrows="1" fold="1" page="1" pageScale="1" pageWidth="1169" pageHeight="827" math="0" shadow="0">
      <root>
        <mxCell id="0" />
        <mxCell id="1" parent="0" />
        <mxCell id="3Bn5ch2bo24NL3D7hYWo-55" value="&lt;b&gt;Online Sign Platform&lt;/b&gt;" style="rounded=1;whiteSpace=wrap;html=1;dashed=1;labelPosition=center;verticalLabelPosition=bottom;align=center;verticalAlign=top;fillColor=#fff2cc;strokeColor=#d6b656;" vertex="1" parent="1">
          <mxGeometry x="290" y="125" width="540" height="130" as="geometry" />
        </mxCell>
        <mxCell id="3Bn5ch2bo24NL3D7hYWo-54" value="&lt;b&gt;Workflow Engine&lt;/b&gt;" style="rounded=1;whiteSpace=wrap;html=1;dashed=1;labelPosition=center;verticalLabelPosition=bottom;align=center;verticalAlign=top;fillColor=#B9E0A5;" vertex="1" parent="1">
          <mxGeometry x="288" y="290" width="540" height="130" as="geometry" />
        </mxCell>
        <mxCell id="3Bn5ch2bo24NL3D7hYWo-53" value="&lt;b&gt;Contract Management&lt;/b&gt;" style="rounded=1;whiteSpace=wrap;html=1;dashed=1;labelPosition=center;verticalLabelPosition=bottom;align=center;verticalAlign=top;fillColor=#B9E0A5;" vertex="1" parent="1">
          <mxGeometry x="290" y="460" width="540" height="130" as="geometry" />
        </mxCell>
        <mxCell id="3Bn5ch2bo24NL3D7hYWo-51" value="&lt;b&gt;AD&lt;/b&gt;" style="rounded=1;whiteSpace=wrap;html=1;dashed=1;labelPosition=center;verticalLabelPosition=bottom;align=center;verticalAlign=top;fillColor=#B9E0A5;" vertex="1" parent="1">
          <mxGeometry x="10" y="460" width="230" height="130" as="geometry" />
        </mxCell>
        <mxCell id="3Bn5ch2bo24NL3D7hYWo-50" value="&lt;b&gt;AWS Infrastructure&lt;/b&gt;" style="rounded=1;whiteSpace=wrap;html=1;dashed=1;labelPosition=center;verticalLabelPosition=bottom;align=center;verticalAlign=top;fillColor=#B9E0A5;" vertex="1" parent="1">
          <mxGeometry x="220" y="640" width="610" height="120" as="geometry" />
        </mxCell>
        <mxCell id="3Bn5ch2bo24NL3D7hYWo-30" style="edgeStyle=orthogonalEdgeStyle;rounded=0;orthogonalLoop=1;jettySize=auto;html=1;entryX=0;entryY=0.5;entryDx=0;entryDy=0;" edge="1" parent="1" source="3Bn5ch2bo24NL3D7hYWo-9" target="3Bn5ch2bo24NL3D7hYWo-7">
          <mxGeometry relative="1" as="geometry" />
        </mxCell>
        <mxCell id="3Bn5ch2bo24NL3D7hYWo-9" value="Company Org" style="shape=image;html=1;verticalAlign=top;verticalLabelPosition=bottom;labelBackgroundColor=#ffffff;imageAspect=0;aspect=fixed;image=https://cdn3.iconfinder.com/data/icons/business-and-education-1/512/244_team_teamwork_organization_group_company-128.png" vertex="1" parent="1">
          <mxGeometry x="10" y="460" width="100" height="100" as="geometry" />
        </mxCell>
        <mxCell id="3Bn5ch2bo24NL3D7hYWo-32" value="LDAP&lt;br&gt;authentication" style="edgeStyle=orthogonalEdgeStyle;curved=1;rounded=0;orthogonalLoop=1;jettySize=auto;html=1;entryX=0;entryY=0.5;entryDx=0;entryDy=0;entryPerimeter=0;" edge="1" parent="1" source="3Bn5ch2bo24NL3D7hYWo-7" target="3Bn5ch2bo24NL3D7hYWo-16">
          <mxGeometry relative="1" as="geometry" />
        </mxCell>
        <mxCell id="3Bn5ch2bo24NL3D7hYWo-52" value="Organization&lt;br&gt;Synchronization" style="edgeStyle=orthogonalEdgeStyle;curved=1;rounded=0;orthogonalLoop=1;jettySize=auto;html=1;exitX=0.5;exitY=0;exitDx=0;exitDy=0;entryX=0;entryY=0.5;entryDx=0;entryDy=0;entryPerimeter=0;" edge="1" parent="1" source="3Bn5ch2bo24NL3D7hYWo-7" target="3Bn5ch2bo24NL3D7hYWo-36">
          <mxGeometry x="0.1538" y="-30" relative="1" as="geometry">
            <mxPoint as="offset" />
          </mxGeometry>
        </mxCell>
        <mxCell id="3Bn5ch2bo24NL3D7hYWo-7" value="Microsoft AD" style="aspect=fixed;perimeter=ellipsePerimeter;html=1;align=center;shadow=0;dashed=0;spacingTop=3;image;image=img/lib/active_directory/windows_server_2.svg;" vertex="1" parent="1">
          <mxGeometry x="150" y="460" width="80" height="100" as="geometry" />
        </mxCell>
        <mxCell id="3Bn5ch2bo24NL3D7hYWo-12" value="Doc signed" style="shadow=0;dashed=0;html=1;strokeColor=none;fillColor=#4495D1;labelPosition=center;verticalLabelPosition=bottom;verticalAlign=top;align=center;outlineConnect=0;shape=mxgraph.veeam.checked_doc;aspect=fixed;" vertex="1" parent="1">
          <mxGeometry x="729" y="473.16" width="70" height="84.89" as="geometry" />
        </mxCell>
        <mxCell id="3Bn5ch2bo24NL3D7hYWo-39" value="submit" style="edgeStyle=orthogonalEdgeStyle;curved=1;rounded=0;orthogonalLoop=1;jettySize=auto;html=1;" edge="1" parent="1" source="3Bn5ch2bo24NL3D7hYWo-13" target="3Bn5ch2bo24NL3D7hYWo-20">
          <mxGeometry x="-0.3472" y="20" relative="1" as="geometry">
            <mxPoint as="offset" />
          </mxGeometry>
        </mxCell>
        <mxCell id="3Bn5ch2bo24NL3D7hYWo-13" value="Doc to sign" style="verticalLabelPosition=bottom;html=1;verticalAlign=top;align=center;strokeColor=none;fillColor=#00BEF2;shape=mxgraph.azure.file_2;pointerEvents=1;aspect=fixed;" vertex="1" parent="1">
          <mxGeometry x="490" y="473.15999999999997" width="70" height="73.68" as="geometry" />
        </mxCell>
        <mxCell id="3Bn5ch2bo24NL3D7hYWo-34" value="upload" style="edgeStyle=orthogonalEdgeStyle;curved=1;rounded=0;orthogonalLoop=1;jettySize=auto;html=1;" edge="1" parent="1" source="3Bn5ch2bo24NL3D7hYWo-16" target="3Bn5ch2bo24NL3D7hYWo-13">
          <mxGeometry relative="1" as="geometry" />
        </mxCell>
        <mxCell id="3Bn5ch2bo24NL3D7hYWo-16" value="User" style="fillColor=#28A8E0;verticalLabelPosition=bottom;sketch=0;html=1;strokeColor=#ffffff;verticalAlign=top;align=center;points=[[0.145,0.145,0],[0.5,0,0],[0.855,0.145,0],[1,0.5,0],[0.855,0.855,0],[0.5,1,0],[0.145,0.855,0],[0,0.5,0]];pointerEvents=1;shape=mxgraph.cisco_safe.compositeIcon;bgIcon=ellipse;resIcon=mxgraph.cisco_safe.capability.user;aspect=fixed;" vertex="1" parent="1">
          <mxGeometry x="330" y="470" width="80" height="80" as="geometry" />
        </mxCell>
        <mxCell id="3Bn5ch2bo24NL3D7hYWo-42" style="edgeStyle=orthogonalEdgeStyle;curved=1;rounded=0;orthogonalLoop=1;jettySize=auto;html=1;exitX=0.5;exitY=0;exitDx=0;exitDy=0;entryX=0.25;entryY=1;entryDx=0;entryDy=0;" edge="1" parent="1" source="3Bn5ch2bo24NL3D7hYWo-20" target="3Bn5ch2bo24NL3D7hYWo-24">
          <mxGeometry relative="1" as="geometry" />
        </mxCell>
        <mxCell id="3Bn5ch2bo24NL3D7hYWo-20" value="Approval Workflow" style="shape=image;html=1;verticalAlign=top;verticalLabelPosition=bottom;labelBackgroundColor=#ffffff;imageAspect=0;aspect=fixed;image=https://cdn4.iconfinder.com/data/icons/web-ui-color/128/Checkmark-128.png" vertex="1" parent="1">
          <mxGeometry x="635" y="300" width="80" height="80" as="geometry" />
        </mxCell>
        <mxCell id="3Bn5ch2bo24NL3D7hYWo-43" value="certified" style="edgeStyle=orthogonalEdgeStyle;curved=1;rounded=0;orthogonalLoop=1;jettySize=auto;html=1;" edge="1" parent="1" source="3Bn5ch2bo24NL3D7hYWo-24" target="3Bn5ch2bo24NL3D7hYWo-12">
          <mxGeometry relative="1" as="geometry">
            <mxPoint x="790" y="470" as="targetPoint" />
          </mxGeometry>
        </mxCell>
        <mxCell id="3Bn5ch2bo24NL3D7hYWo-24" value="online sign" style="shape=image;html=1;verticalAlign=top;verticalLabelPosition=bottom;labelBackgroundColor=#ffffff;imageAspect=0;aspect=fixed;image=https://cdn3.iconfinder.com/data/icons/lovely/PNG/128/Register.png" vertex="1" parent="1">
          <mxGeometry x="700" y="126.17" width="128" height="128" as="geometry" />
        </mxCell>
        <mxCell id="3Bn5ch2bo24NL3D7hYWo-27" value="" style="group" vertex="1" connectable="0" parent="1">
          <mxGeometry x="242" y="661" width="558" height="78" as="geometry" />
        </mxCell>
        <mxCell id="3Bn5ch2bo24NL3D7hYWo-1" value="Compute" style="sketch=0;points=[[0,0,0],[0.25,0,0],[0.5,0,0],[0.75,0,0],[1,0,0],[0,1,0],[0.25,1,0],[0.5,1,0],[0.75,1,0],[1,1,0],[0,0.25,0],[0,0.5,0],[0,0.75,0],[1,0.25,0],[1,0.5,0],[1,0.75,0]];outlineConnect=0;fontColor=#232F3E;gradientColor=#F78E04;gradientDirection=north;fillColor=#D05C17;strokeColor=#ffffff;dashed=0;verticalLabelPosition=bottom;verticalAlign=top;align=center;html=1;fontSize=12;fontStyle=0;aspect=fixed;shape=mxgraph.aws4.resourceIcon;resIcon=mxgraph.aws4.ec2;" vertex="1" parent="3Bn5ch2bo24NL3D7hYWo-27">
          <mxGeometry x="119" width="78" height="78" as="geometry" />
        </mxCell>
        <mxCell id="3Bn5ch2bo24NL3D7hYWo-3" value="ElasticCache" style="sketch=0;points=[[0,0,0],[0.25,0,0],[0.5,0,0],[0.75,0,0],[1,0,0],[0,1,0],[0.25,1,0],[0.5,1,0],[0.75,1,0],[1,1,0],[0,0.25,0],[0,0.5,0],[0,0.75,0],[1,0.25,0],[1,0.5,0],[1,0.75,0]];outlineConnect=0;fontColor=#232F3E;gradientColor=#4D72F3;gradientDirection=north;fillColor=#3334B9;strokeColor=#ffffff;dashed=0;verticalLabelPosition=bottom;verticalAlign=top;align=center;html=1;fontSize=12;fontStyle=0;aspect=fixed;shape=mxgraph.aws4.resourceIcon;resIcon=mxgraph.aws4.elasticache;" vertex="1" parent="3Bn5ch2bo24NL3D7hYWo-27">
          <mxGeometry x="360" width="78" height="78" as="geometry" />
        </mxCell>
        <mxCell id="3Bn5ch2bo24NL3D7hYWo-4" value="RDS" style="sketch=0;points=[[0,0,0],[0.25,0,0],[0.5,0,0],[0.75,0,0],[1,0,0],[0,1,0],[0.25,1,0],[0.5,1,0],[0.75,1,0],[1,1,0],[0,0.25,0],[0,0.5,0],[0,0.75,0],[1,0.25,0],[1,0.5,0],[1,0.75,0]];outlineConnect=0;fontColor=#232F3E;gradientColor=#4D72F3;gradientDirection=north;fillColor=#3334B9;strokeColor=#ffffff;dashed=0;verticalLabelPosition=bottom;verticalAlign=top;align=center;html=1;fontSize=12;fontStyle=0;aspect=fixed;shape=mxgraph.aws4.resourceIcon;resIcon=mxgraph.aws4.database;" vertex="1" parent="3Bn5ch2bo24NL3D7hYWo-27">
          <mxGeometry x="239" width="78" height="78" as="geometry" />
        </mxCell>
        <mxCell id="3Bn5ch2bo24NL3D7hYWo-10" value="Storage" style="sketch=0;points=[[0,0,0],[0.25,0,0],[0.5,0,0],[0.75,0,0],[1,0,0],[0,1,0],[0.25,1,0],[0.5,1,0],[0.75,1,0],[1,1,0],[0,0.25,0],[0,0.5,0],[0,0.75,0],[1,0.25,0],[1,0.5,0],[1,0.75,0]];outlineConnect=0;fontColor=#232F3E;gradientColor=#60A337;gradientDirection=north;fillColor=#277116;strokeColor=#ffffff;dashed=0;verticalLabelPosition=bottom;verticalAlign=top;align=center;html=1;fontSize=12;fontStyle=0;aspect=fixed;shape=mxgraph.aws4.resourceIcon;resIcon=mxgraph.aws4.s3;" vertex="1" parent="3Bn5ch2bo24NL3D7hYWo-27">
          <mxGeometry x="480" width="78" height="78" as="geometry" />
        </mxCell>
        <mxCell id="3Bn5ch2bo24NL3D7hYWo-17" value="" style="outlineConnect=0;dashed=0;verticalLabelPosition=bottom;verticalAlign=top;align=center;html=1;shape=mxgraph.aws3.cloud_2;fillColor=#F58534;gradientColor=none;" vertex="1" parent="3Bn5ch2bo24NL3D7hYWo-27">
          <mxGeometry y="2" width="75" height="75" as="geometry" />
        </mxCell>
        <mxCell id="3Bn5ch2bo24NL3D7hYWo-28" value="" style="group" vertex="1" connectable="0" parent="1">
          <mxGeometry x="330" y="400" width="290" height="180" as="geometry" />
        </mxCell>
        <mxCell id="3Bn5ch2bo24NL3D7hYWo-25" value="" style="verticalLabelPosition=bottom;html=1;verticalAlign=top;align=center;strokeColor=none;fillColor=#00BEF2;shape=mxgraph.azure.mobile;pointerEvents=1;" vertex="1" parent="3Bn5ch2bo24NL3D7hYWo-28">
          <mxGeometry width="26.796875" height="36.71875" as="geometry" />
        </mxCell>
        <mxCell id="3Bn5ch2bo24NL3D7hYWo-26" value="" style="shape=image;html=1;verticalAlign=top;verticalLabelPosition=bottom;labelBackgroundColor=#ffffff;imageAspect=0;aspect=fixed;image=https://cdn2.iconfinder.com/data/icons/whcompare-isometric-web-hosting-servers/50/web-browser-on-laptop-128.png" vertex="1" parent="3Bn5ch2bo24NL3D7hYWo-28">
          <mxGeometry width="78.0677966101695" height="78.0677966101695" as="geometry" />
        </mxCell>
        <mxCell id="3Bn5ch2bo24NL3D7hYWo-38" style="edgeStyle=orthogonalEdgeStyle;curved=1;rounded=0;orthogonalLoop=1;jettySize=auto;html=1;entryX=0;entryY=0.5;entryDx=0;entryDy=0;" edge="1" parent="1" source="3Bn5ch2bo24NL3D7hYWo-29" target="3Bn5ch2bo24NL3D7hYWo-20">
          <mxGeometry relative="1" as="geometry" />
        </mxCell>
        <mxCell id="3Bn5ch2bo24NL3D7hYWo-29" value="Workflow Template" style="sketch=0;html=1;aspect=fixed;strokeColor=none;shadow=0;align=center;verticalAlign=top;fillColor=#3B8DF1;shape=mxgraph.gcp2.gear;labelPosition=center;verticalLabelPosition=bottom;" vertex="1" parent="1">
          <mxGeometry x="480" y="300" width="80" height="80" as="geometry" />
        </mxCell>
        <mxCell id="3Bn5ch2bo24NL3D7hYWo-37" value="define" style="edgeStyle=orthogonalEdgeStyle;curved=1;rounded=0;orthogonalLoop=1;jettySize=auto;html=1;entryX=0;entryY=0.5;entryDx=0;entryDy=0;entryPerimeter=0;" edge="1" parent="1" source="3Bn5ch2bo24NL3D7hYWo-36" target="3Bn5ch2bo24NL3D7hYWo-29">
          <mxGeometry relative="1" as="geometry" />
        </mxCell>
        <mxCell id="3Bn5ch2bo24NL3D7hYWo-36" value="Workflow Admin" style="fillColor=#28A8E0;verticalLabelPosition=bottom;sketch=0;html=1;strokeColor=#ffffff;verticalAlign=top;align=center;points=[[0.145,0.145,0],[0.5,0,0],[0.855,0.145,0],[1,0.5,0],[0.855,0.855,0],[0.5,1,0],[0.145,0.855,0],[0,0.5,0]];pointerEvents=1;shape=mxgraph.cisco_safe.compositeIcon;bgIcon=ellipse;resIcon=mxgraph.cisco_safe.capability.user;aspect=fixed;" vertex="1" parent="1">
          <mxGeometry x="330" y="300" width="80" height="80" as="geometry" />
        </mxCell>
        <mxCell id="3Bn5ch2bo24NL3D7hYWo-41" value="sign" style="edgeStyle=orthogonalEdgeStyle;curved=1;rounded=0;orthogonalLoop=1;jettySize=auto;html=1;entryX=0;entryY=0.5;entryDx=0;entryDy=0;" edge="1" parent="1" source="3Bn5ch2bo24NL3D7hYWo-40" target="3Bn5ch2bo24NL3D7hYWo-24">
          <mxGeometry relative="1" as="geometry">
            <mxPoint x="620" y="240" as="sourcePoint" />
          </mxGeometry>
        </mxCell>
        <mxCell id="3Bn5ch2bo24NL3D7hYWo-40" value="sign parties" style="sketch=0;pointerEvents=1;shadow=0;dashed=0;html=1;strokeColor=none;fillColor=#505050;labelPosition=center;verticalLabelPosition=bottom;verticalAlign=top;outlineConnect=0;align=center;shape=mxgraph.office.users.users_two;fillColor=#2072B8;aspect=fixed;" vertex="1" parent="1">
          <mxGeometry x="480" y="152.45" width="100" height="75.44" as="geometry" />
        </mxCell>
        <mxCell id="3Bn5ch2bo24NL3D7hYWo-49" value="identify" style="edgeStyle=orthogonalEdgeStyle;curved=1;rounded=0;orthogonalLoop=1;jettySize=auto;html=1;" edge="1" parent="1" source="3Bn5ch2bo24NL3D7hYWo-46" target="3Bn5ch2bo24NL3D7hYWo-40">
          <mxGeometry relative="1" as="geometry" />
        </mxCell>
        <mxCell id="3Bn5ch2bo24NL3D7hYWo-46" value="" style="shape=image;html=1;verticalAlign=top;verticalLabelPosition=bottom;labelBackgroundColor=#ffffff;imageAspect=0;aspect=fixed;image=https://cdn4.iconfinder.com/data/icons/48-bubbles/48/31.ID-Horizontal-128.png" vertex="1" parent="1">
          <mxGeometry x="320" y="150" width="80" height="80" as="geometry" />
        </mxCell>
        <mxCell id="3Bn5ch2bo24NL3D7hYWo-56" value="Private Cloud" style="rounded=1;whiteSpace=wrap;html=1;dashed=1;fillColor=#B9E0A5;" vertex="1" parent="1">
          <mxGeometry x="920" y="460" width="120" height="60" as="geometry" />
        </mxCell>
        <mxCell id="3Bn5ch2bo24NL3D7hYWo-57" value="Public Cloud" style="rounded=1;whiteSpace=wrap;html=1;dashed=1;fillColor=#fff2cc;strokeColor=#d6b656;" vertex="1" parent="1">
          <mxGeometry x="920" y="170" width="120" height="60" as="geometry" />
        </mxCell>
      </root>
    </mxGraphModel>
  </diagram>
</mxfile>
